<svg xmlns="http://www.w3.org/2000/svg" viewBox="0 0 500 500"><g id="freepik--background-simple--inject-230"><path d="M378.26,119.17a197.34,197.34,0,0,0-10.2-17.83C324.74,35.28,208.72-.68,151.23,67.6c-13.7,16.28-18.47,35.94-27.69,54.61-21,42.44-60.17,67.82-84.74,107.13-19,30.47-16.51,69.52-5.88,102.46,11.54,35.8,31.86,60.79,64.37,79.8,36.44,21.3,75.41,15.38,114.8,8,17.71-3.33,36-6.73,54.08-5.46,22.68,1.59,45.07,8,67.57,11.13,23.39,3.24,47.67,4,70.21-3.06,72.18-22.64,89.28-128.74,59.59-189.52-10.5-21.51-28.31-38.11-44.84-54.95C400.85,159.53,389.91,141.74,378.26,119.17Z" style="fill:#00C8FF"></path><path d="M378.26,119.17a197.34,197.34,0,0,0-10.2-17.83C324.74,35.28,208.72-.68,151.23,67.6c-13.7,16.28-18.47,35.94-27.69,54.61-21,42.44-60.17,67.82-84.74,107.13-19,30.47-16.51,69.52-5.88,102.46,11.54,35.8,31.86,60.79,64.37,79.8,36.44,21.3,75.41,15.38,114.8,8,17.71-3.33,36-6.73,54.08-5.46,22.68,1.59,45.07,8,67.57,11.13,23.39,3.24,47.67,4,70.21-3.06,72.18-22.64,89.28-128.74,59.59-189.52-10.5-21.51-28.31-38.11-44.84-54.95C400.85,159.53,389.91,141.74,378.26,119.17Z" style="fill:#fff;opacity:0.8"></path></g><g id="freepik--Clouds--inject-230"><g style="opacity:0.30000000000000004"><path d="M442.39,42.92s-10.06-18.78-28.16-22.13S387.41,33.53,384.72,38.9s-9.38,0-17.43.67S356.56,49,352.54,51s-13.41-5.37-18.78-2.69a47.13,47.13,0,0,0-10.48,7.93H471.89s-2.68-12-11.39-15.3S447.75,42.92,442.39,42.92Z" style="fill:none;stroke:#000;stroke-miterlimit:10"></path><path d="M116.12,118.06s-6.93-12.92-19.39-15.23-18.46,8.77-20.3,12.46-6.46,0-12,.47-7.38,6.46-10.15,7.84-9.23-3.69-12.93-1.84a32.07,32.07,0,0,0-7.21,5.45H136.42s-1.84-8.22-7.84-10.53S119.81,118.06,116.12,118.06Z" style="fill:none;stroke:#000;stroke-miterlimit:10"></path><path d="M451.51,188.17s-4.07-7.59-11.39-8.95-10.85,5.16-11.94,7.33-3.79,0-7.05.27-4.34,3.8-6,4.61-5.42-2.17-7.59-1.09a19.07,19.07,0,0,0-4.24,3.21h60.11s-1.08-4.83-4.61-6.19S453.68,188.17,451.51,188.17Z" style="fill:none;stroke:#000;stroke-miterlimit:10"></path><path d="M224.35,273.8s-4.07-7.6-11.39-9S202.11,270,201,272.17s-3.79,0-7.05.27-4.34,3.8-6,4.61-5.43-2.17-7.6-1.08a18.84,18.84,0,0,0-4.24,3.2h60.12s-1.09-4.83-4.61-6.19S226.52,273.8,224.35,273.8Z" style="fill:none;stroke:#000;stroke-miterlimit:10"></path></g></g><g id="freepik--Floor--inject-230"><ellipse cx="253.18" cy="467.09" rx="197.34" ry="9.41" style="fill:#263238;stroke:#263238;stroke-miterlimit:10"></ellipse></g><g id="freepik--Gears--inject-230"><path d="M410.21,272.27V240l-18-4.11a139.82,139.82,0,0,0-8.36-31.76l13.68-12.68-16.14-28-17.7,5.47a141.05,141.05,0,0,0-23.1-23.3l5.52-17.85-28-16.15-12.56,13.56a139.14,139.14,0,0,0-31.7-8.64l-4.14-18.19H237.42l-4.11,18a139.44,139.44,0,0,0-31.76,8.36l-12.68-13.69-28,16.15,5.47,17.69A141.89,141.89,0,0,0,143.07,168l-17.85-5.52-16.15,28L122.63,203a139.66,139.66,0,0,0-8.64,31.7l-18.18,4.14v32.29l18,4.1A139.69,139.69,0,0,0,122.2,307l-13.68,12.69,16.14,28,17.7-5.47a141.5,141.5,0,0,0,23.1,23.31l-5.52,17.85,28,16.15L200.47,386a139.66,139.66,0,0,0,31.7,8.64l4.14,18.18H268.6l4.11-18a140,140,0,0,0,31.76-8.35l12.68,13.68,28-16.15-5.48-17.69A141.17,141.17,0,0,0,363,343.11l17.85,5.52,16.15-28L383.39,308.1A139.43,139.43,0,0,0,392,276.41ZM360,255.57A106.94,106.94,0,1,1,253,148.63,106.94,106.94,0,0,1,360,255.57Z" style="opacity:0.30000000000000004"></path><path d="M454.27,121.07v-10.3l-5.75-1.31a44.49,44.49,0,0,0-2.67-10.12l4.37-4-5.15-8.92-5.64,1.75a44.66,44.66,0,0,0-7.37-7.43L433.82,75l-8.92-5.15-4,4.32a45.08,45.08,0,0,0-10.11-2.76l-1.32-5.79h-10.3l-1.31,5.75A44.47,44.47,0,0,0,387.74,74l-4.05-4.36-8.92,5.15,1.75,5.64a44.66,44.66,0,0,0-7.43,7.37l-5.69-1.76L358.25,95l4.32,4a44.94,44.94,0,0,0-2.76,10.11L354,110.42v10.3l5.75,1.3a44.42,44.42,0,0,0,2.66,10.13l-4.36,4,5.15,8.92,5.64-1.74a45,45,0,0,0,7.37,7.43l-1.76,5.69,8.92,5.15,4-4.32a44.54,44.54,0,0,0,10.11,2.75l1.32,5.8h10.3l1.3-5.75a44.43,44.43,0,0,0,10.13-2.67l4.05,4.37,8.91-5.15L431.77,151a45.44,45.44,0,0,0,7.43-7.37l5.69,1.76L450,136.5l-4.32-4a44.54,44.54,0,0,0,2.75-10.11Zm-16-5.33a34.1,34.1,0,1,1-34.1-34.1A34.09,34.09,0,0,1,438.24,115.74Z" style="opacity:0.30000000000000004"></path><path d="M112.51,366.54v-7.81l-4.36-1a33.26,33.26,0,0,0-2-7.68l3.31-3.07-3.91-6.76-4.27,1.32a34.62,34.62,0,0,0-5.59-5.63L97,331.6l-6.77-3.9-3,3.28a33.94,33.94,0,0,0-7.67-2.09l-1-4.4h-7.8l-1,4.36a34.07,34.07,0,0,0-7.68,2L59,327.57l-6.76,3.9,1.32,4.28a33.78,33.78,0,0,0-5.63,5.58L43.61,340l-3.9,6.76,3.27,3a33.33,33.33,0,0,0-2.08,7.66l-4.4,1v7.81l4.36,1a33.53,33.53,0,0,0,2,7.68L39.57,378l3.91,6.76,4.27-1.33a34.68,34.68,0,0,0,5.59,5.64L52,393.39l6.76,3.91,3-3.28a33.94,33.94,0,0,0,7.67,2.09l1,4.4h7.8l1-4.37a33.53,33.53,0,0,0,7.68-2L90,397.43l6.76-3.9-1.32-4.28a33.84,33.84,0,0,0,5.63-5.59L105.4,385l3.9-6.76-3.27-3a33.86,33.86,0,0,0,2.09-7.66Zm-12.15-4a25.86,25.86,0,1,1-25.85-25.86A25.85,25.85,0,0,1,100.36,362.5Z" style="opacity:0.30000000000000004"></path></g><g id="freepik--Plants--inject-230"><path d="M385,464.28a.51.51,0,0,1-.51-.47,64.51,64.51,0,0,1,26.7-57,.51.51,0,0,1,.59.83,63.47,63.47,0,0,0-26.27,56.06.51.51,0,0,1-.47.55Z" style="fill:#263238"></path><path d="M395.59,445.25c-5.94-1.85-10.45,7.11-10.26,7.28-.14,1.06-.26,2.12-.35,3.19.6-1.3,3.61-3.12,8.22-3.92S401.31,446.8,395.59,445.25Z" style="fill:#263238"></path><path d="M378.23,440.72c-5.89-1.6-5,6.76-.66,9,4.18,2.38,6.84,4.63,7.32,6,0-1.08.06-2.15.14-3.22C384.8,452.56,383.74,442.44,378.23,440.72Z" style="fill:#263238"></path><path d="M398.66,436.56c-5.54-2.8-11.47,5.17-11.3,5.35-.32,1-.62,2-.89,3,.82-1.15,4.08-2.41,8.76-2.4S404,439.05,398.66,436.56Z" style="fill:#263238"></path><path d="M382.31,429.18c-5.53-2.57-6.05,5.75-2.14,8.71,3.72,3,6,5.66,6.21,7,.2-1,.43-2.07.68-3.1C386.82,441.86,387.46,431.81,382.31,429.18Z" style="fill:#263238"></path><path d="M403.13,428.54c-5-3.68-12.16,3.15-12,3.36-.48.93-.93,1.87-1.37,2.82,1-1,4.42-1.67,9-.86C403.34,434.5,408,431.9,403.13,428.54Z" style="fill:#263238"></path><path d="M388.24,418.53c-5-3.45-6.91,4.65-3.55,8.2,3.17,3.6,4.94,6.56,5,8,.37-1,.76-2,1.18-2.92C390.59,431.77,392.87,422,388.24,418.53Z" style="fill:#263238"></path><path d="M408.88,421.38c-4.31-4.47-12.53,1.09-12.43,1.3-.62.84-1.23,1.69-1.82,2.55,1.14-.8,4.63-.9,9,.67C408.08,427.3,413.13,425.5,408.88,421.38Z" style="fill:#263238"></path><path d="M395.88,409c-4.38-4.24-7.61,3.44-4.89,7.51,2.53,4.08,3.78,7.29,3.57,8.67.52-.91,1.07-1.8,1.64-2.68C396,422.47,399.86,413.2,395.88,409Z" style="fill:#263238"></path><path d="M415.81,415.23c-3.5-5.13-12.59-1-12.52-.75-.77.72-1.51,1.46-2.24,2.21,1.27-.6,4.73-.12,8.81,2.15S419.3,420,415.81,415.23Z" style="fill:#263238"></path><path d="M405.09,400.84c-3.61-4.92-8.15,2.16-6.15,6.63,1.8,4.46,2.49,7.84,2.05,9.17.67-.81,1.36-1.6,2.08-2.38C402.82,414.19,408.29,405.65,405.09,400.84Z" style="fill:#263238"></path><path d="M407.65,410.19c-.16,0,4.88-7.57,9.12-10.17s7.06-.25,7.08,1.88-2.86,3.9-5.57,4.82C415.54,407.43,407.64,410,407.65,410.19Z" style="fill:#263238"></path><path d="M407.65,410.53h0a.35.35,0,0,1-.29-.27v0a.25.25,0,0,1,.08-.26c.68-1.53,5.55-8,9.19-10.24,2-1.32,4.09-1.59,5.69-.74a3.48,3.48,0,0,1,1.91,2.91c.08,2.9-4.42,4.67-5.8,5.14-2.68.69-9.87,3.08-10.51,3.4A.32.32,0,0,1,407.65,410.53Zm12.58-11.36A5.93,5.93,0,0,0,417,400.3c-3.35,2.05-7.15,7.17-8.49,9.18.67-.25,1.71-.6,3.36-1.14,2.11-.69,4.9-1.57,6.37-1.94,2.59-.89,5.37-2.55,5.32-4.49a2.79,2.79,0,0,0-1.56-2.32A3.67,3.67,0,0,0,420.23,399.17Z" style="fill:#263238"></path><path d="M367.19,464.28a.36.36,0,0,0,.36-.33,45.61,45.61,0,0,0-18.88-40.3.36.36,0,1,0-.42.58,44.92,44.92,0,0,1,18.59,39.66.36.36,0,0,0,.33.39Z" style="fill:#263238"></path><path d="M359.71,450.82c4.2-1.31,7.39,5,7.25,5.15.11.75.19,1.5.26,2.26-.43-.92-2.56-2.22-5.82-2.78S355.67,451.91,359.71,450.82Z" style="fill:#263238"></path><path d="M372,447.61c4.16-1.13,3.54,4.78.47,6.39s-4.84,3.28-5.18,4.22c0-.76,0-1.52-.1-2.27C367.34,456,368.09,448.83,372,447.61Z" style="fill:#263238"></path><path d="M357.54,444.67c3.91-2,8.11,3.65,8,3.79.23.71.44,1.42.63,2.15-.58-.82-2.89-1.71-6.19-1.7S353.73,446.43,357.54,444.67Z" style="fill:#263238"></path><path d="M369.1,439.45c3.92-1.81,4.28,4.07,1.52,6.16s-4.22,4-4.4,5q-.21-1.09-.48-2.19C365.91,448.42,365.46,441.31,369.1,439.45Z" style="fill:#263238"></path><path d="M354.38,439c3.53-2.6,8.6,2.23,8.5,2.37.34.66.67,1.32,1,2-.7-.7-3.12-1.18-6.38-.61S350.92,441.37,354.38,439Z" style="fill:#263238"></path><path d="M364.91,431.92c3.55-2.44,4.89,3.28,2.51,5.8s-3.5,4.64-3.51,5.62c-.26-.69-.54-1.38-.83-2.06C363.25,441.28,361.63,434.37,364.91,431.92Z" style="fill:#263238"></path><path d="M350.31,433.93c3.05-3.16,8.86.77,8.79.93q.66.88,1.29,1.8c-.81-.57-3.28-.64-6.39.47S347.3,436.85,350.31,433.93Z" style="fill:#263238"></path><path d="M359.5,425.18c3.1-3,5.39,2.44,3.46,5.31-1.78,2.89-2.67,5.16-2.52,6.13-.37-.64-.76-1.27-1.16-1.89C359.45,434.71,356.69,428.15,359.5,425.18Z" style="fill:#263238"></path><path d="M345.41,429.58c2.47-3.63,8.9-.69,8.85-.53.54.51,1.07,1,1.58,1.57-.89-.43-3.34-.09-6.23,1.52S342.94,433,345.41,429.58Z" style="fill:#263238"></path><path d="M353,419.4c2.55-3.48,5.76,1.53,4.35,4.69s-1.76,5.55-1.45,6.49c-.47-.57-1-1.14-1.47-1.68C354.59,428.85,350.73,422.81,353,419.4Z" style="fill:#263238"></path><path d="M351.17,426c.12,0-3.45-5.36-6.44-7.2s-5-.17-5,1.33,2,2.76,3.94,3.42C345.6,424.06,351.19,425.91,351.17,426Z" style="fill:#263238"></path><path d="M351.17,426.26h0a.26.26,0,0,0,.2-.19v0a.16.16,0,0,0-.05-.18c-.48-1.08-3.93-5.66-6.51-7.24a3.91,3.91,0,0,0-4-.52,2.41,2.41,0,0,0-1.35,2c-.06,2.05,3.12,3.31,4.1,3.64,1.89.49,7,2.17,7.43,2.41A.27.27,0,0,0,351.17,426.26Zm-8.89-8a4.24,4.24,0,0,1,2.32.8c2.36,1.45,5,5.07,6,6.49-.47-.17-1.22-.42-2.38-.8-1.49-.49-3.46-1.11-4.5-1.38-1.84-.63-3.8-1.79-3.77-3.17a2,2,0,0,1,1.11-1.64A2.47,2.47,0,0,1,342.28,418.22Z" style="fill:#263238"></path><path d="M107.76,464.28a.36.36,0,0,0,.36-.33,45.62,45.62,0,0,0-18.89-40.3.36.36,0,0,0-.5.08.36.36,0,0,0,.09.5,44.89,44.89,0,0,1,18.58,39.66.37.37,0,0,0,.34.39Z" style="fill:#263238"></path><path d="M100.28,450.82c4.2-1.31,7.39,5,7.25,5.15.11.75.19,1.5.26,2.26-.43-.92-2.56-2.22-5.82-2.78S96.24,451.91,100.28,450.82Z" style="fill:#263238"></path><path d="M112.56,447.61c4.16-1.13,3.54,4.78.47,6.39s-4.84,3.28-5.18,4.22c0-.76,0-1.52-.1-2.27C107.91,456,108.66,448.83,112.56,447.61Z" style="fill:#263238"></path><path d="M98.11,444.67c3.91-2,8.11,3.65,8,3.79.23.71.44,1.42.63,2.15-.58-.82-2.89-1.71-6.19-1.7S94.3,446.43,98.11,444.67Z" style="fill:#263238"></path><path d="M109.67,439.45c3.92-1.81,4.28,4.07,1.52,6.16s-4.22,4-4.4,5q-.21-1.09-.48-2.19C106.48,448.42,106,441.31,109.67,439.45Z" style="fill:#263238"></path><path d="M95,439c3.53-2.6,8.59,2.23,8.5,2.37.34.66.67,1.32,1,2-.7-.7-3.12-1.18-6.38-.61S91.49,441.37,95,439Z" style="fill:#263238"></path><path d="M105.48,431.92c3.55-2.44,4.89,3.28,2.51,5.8s-3.5,4.64-3.51,5.62c-.26-.69-.54-1.38-.83-2.06C103.82,441.28,102.2,434.37,105.48,431.92Z" style="fill:#263238"></path><path d="M90.88,433.93c3.05-3.16,8.86.77,8.79.93.44.59.87,1.19,1.28,1.8-.8-.57-3.27-.64-6.38.47S87.87,436.85,90.88,433.93Z" style="fill:#263238"></path><path d="M100.07,425.18c3.1-3,5.39,2.44,3.46,5.31s-2.67,5.16-2.52,6.13c-.37-.64-.76-1.27-1.16-1.89C100,434.71,97.26,428.15,100.07,425.18Z" style="fill:#263238"></path><path d="M86,429.58c2.48-3.63,8.91-.69,8.86-.53.54.51,1.07,1,1.58,1.57-.89-.43-3.34-.09-6.23,1.52S83.51,433,86,429.58Z" style="fill:#263238"></path><path d="M93.56,419.4c2.55-3.48,5.76,1.53,4.35,4.69s-1.76,5.55-1.45,6.49c-.48-.57-1-1.14-1.47-1.68C95.16,428.85,91.29,422.81,93.56,419.4Z" style="fill:#263238"></path><path d="M91.74,426c.12,0-3.45-5.36-6.44-7.2s-5-.17-5,1.33,2,2.76,4,3.42C86.17,424.06,91.76,425.91,91.74,426Z" style="fill:#263238"></path><path d="M91.74,426.26h0a.26.26,0,0,0,.2-.19v0a.18.18,0,0,0,0-.18c-.48-1.08-3.93-5.66-6.51-7.24a3.91,3.91,0,0,0-4-.52,2.41,2.41,0,0,0-1.35,2c-.06,2.05,3.12,3.31,4.1,3.64,1.89.49,7,2.17,7.43,2.41A.27.27,0,0,0,91.74,426.26Zm-8.89-8a4.19,4.19,0,0,1,2.31.8c2.37,1.45,5.06,5.07,6,6.49-.47-.17-1.22-.42-2.38-.8-1.49-.49-3.46-1.11-4.51-1.38-1.83-.63-3.79-1.79-3.76-3.17a2,2,0,0,1,1.1-1.64A2.54,2.54,0,0,1,82.85,418.22Z" style="fill:#263238"></path></g><g id="freepik--Character--inject-230"><polygon points="218.3 400.48 219.16 450.64 238.77 451.22 245.69 404.51 218.3 400.48" style="fill:#263238;stroke:#263238;stroke-miterlimit:10"></polygon><path d="M219.16,450.64a45.58,45.58,0,0,1-2.88,6.63c-1.16,1.73-5.48,6.92-7.79,11.25s2.6,7.49,8.94,7.49,12.69-3.74,14.42-6.91a33.75,33.75,0,0,1,3.74-5.48s1.16.29,1.45-3.75a44.38,44.38,0,0,1,1.73-8.65Z" style="fill:#878787;stroke:#263238;stroke-miterlimit:10"></path><path d="M217.43,476c6.34,0,12.69-3.74,14.42-6.91a33.75,33.75,0,0,1,3.74-5.48s1.16.29,1.45-3.75q0-.74.15-1.47a29.6,29.6,0,0,0-3,2.49c-1.68,1.68-3.92,9.16-12.52,12.33s-13.14-4.7-13.14-4.7C206.19,472.84,211.09,476,217.43,476Z" style="fill:#878787;stroke:#263238;stroke-miterlimit:10"></path><polygon points="279.99 405.38 283.17 448.63 302.48 446.61 306.81 403.65 279.99 405.38" style="fill:#263238;stroke:#263238;stroke-miterlimit:10"></polygon><path d="M302.48,446.61s2,6.34,4.33,9.22,8.07,10.09,6.34,15-13.55,3.45-17.88,1.44-4.9-7.5-6.92-9.52a12,12,0,0,1-3.46-6.05c-.57-2.31-1.73-8.07-1.73-8.07Z" style="fill:#878787;stroke:#263238;stroke-miterlimit:10"></path><path d="M311.15,469.3c-1.68,2.43-6.16,3-11.4,2.24s-9.15-8.6-10.28-11.21c-.74-1.74-3.11-3.14-4.64-3.89,0,.09.05.18.06.26a12,12,0,0,0,3.46,6.05c2,2,2.6,7.5,6.92,9.52s16.15,3.46,17.88-1.45a8,8,0,0,0-.31-5.25A12.69,12.69,0,0,1,311.15,469.3Z" style="fill:#878787;stroke:#263238;stroke-miterlimit:10"></path><path d="M311.4,282.6s1.08,24.82,1.08,45.54-1.35,79.28-1.35,79.28-45.05,1.35-56.31,3.15-45-5.85-45-5.85-1.8-49.55-1.35-62.17S210.53,269,210.53,269v-9.76s-14-106.73-13.69-107.87,36-16.27,36-16.27l39.39-4.85s22.83.57,24.54,1.42,32.71,38.42,32.71,38.42-1.6,46.16-2.51,63.76c-.53,10.1-3.21,22-5.49,25.14s-11.58,2-11.58,2l.46,13.47Z" style="fill:#00C8FF;stroke:#263238;stroke-miterlimit:10"></path><path d="M291.76,285c0,7.74-.11,14.43-.24,19.48" style="fill:none;stroke:#263238;stroke-miterlimit:10"></path><path d="M290.62,156.77s1.17,72.88,1.15,119.59" style="fill:none;stroke:#263238;stroke-miterlimit:10"></path><path d="M247.75,351.1c.41,5.64.81,10,1.19,12.24" style="fill:none;stroke:#263238;stroke-miterlimit:10"></path><path d="M243.5,262.32s1.87,51.47,3.76,81.56" style="fill:none;stroke:#263238;stroke-miterlimit:10"></path><path d="M247.68,217.09c.31,3.46.59,6,.8,7.18" style="fill:none;stroke:#263238;stroke-miterlimit:10"></path><path d="M243.5,155.86s2.21,37.31,3.83,57.1" style="fill:none;stroke:#263238;stroke-miterlimit:10"></path><line x1="281.55" y1="181.23" x2="281.1" y2="217.47" style="fill:none;stroke:#263238;stroke-miterlimit:10"></line><path d="M227.65,149.52s1.29,7.56,3.62,19.48" style="fill:none;stroke:#263238;stroke-miterlimit:10"></path><path d="M237,124.73s-5,3.56-5.23,4.81-.83,6.7.42,8.16,10,8,11.71,9,6.7,5.23,6.7,5.23l4.39,6.69s.84-8.57,1.25-9.62S267.75,133.1,268,132.05s-1.25-7.53-1.88-8.36-4.81-1.47-4.81-1.47S243.49,123.69,237,124.73Z" style="fill:#fff;stroke:#263238;stroke-miterlimit:10"></path><line x1="235.96" y1="133.52" x2="231.77" y2="129.54" style="fill:none;stroke:#263238;stroke-miterlimit:10"></line><line x1="262.73" y1="126.41" x2="266.07" y2="123.69" style="fill:none;stroke:#263238;stroke-miterlimit:10"></line><path d="M234.91,120.76,236,133.52s1,1.67,6.9,4a22.7,22.7,0,0,1,9.2,6.9s1.67-6.27,2.72-8.78,8-9.2,8-9.2l-.84-6.91Z" style="fill:#fff;stroke:#263238;stroke-miterlimit:10"></path><polygon points="250.75 127.77 235.96 133.52 235.31 123.61 250.75 127.77" style="fill:#263238;stroke:#263238;stroke-miterlimit:10"></polygon><path d="M244.33,53.75s-15.11,7-24.15,11.06-21.19,7.33-20,7.79,30.08,7.8,36.93,9.35,31-9.66,33.51-10.9S286.09,64.5,285,64.19,269,60,258.35,57.65,245.42,54.22,244.33,53.75Z" style="fill:#00C8FF;stroke:#263238;stroke-miterlimit:10"></path><path d="M226.1,100.34a1.71,1.71,0,0,0-2.81-.78c-2,1.41-.93,6.39.16,8.11a13.14,13.14,0,0,0,3.9,3.27Z" style="fill:#fff;stroke:#263238;stroke-miterlimit:10"></path><path d="M266,98.78s1.56-2.8,3.12-.31-2,10-4.52,11.07Z" style="fill:#fff;stroke:#263238;stroke-miterlimit:10"></path><path d="M225.63,94s.62,17,3.59,22,10.59,12.94,17.6,14.65,14.81-9.5,16.37-12.31,3.27-27,3-28.36-5.3-5.92-14-7.32-24.77,3.89-25.87,5.76S225.63,94,225.63,94Z" style="fill:#fff;stroke:#263238;stroke-miterlimit:10"></path><path d="M242.5,106.73s-.46,2,.16,2.65,4.05,2,5.3,1.71,3.43-1.09,3.58-2.65a6.52,6.52,0,0,0-.15-2.49" style="fill:none;stroke:#263238;stroke-miterlimit:10"></path><path d="M256.22,113a31.59,31.59,0,0,1-8.11,2.19c-4.2.46-11.06-1.41-11.06-1.41" style="fill:none;stroke:#263238;stroke-miterlimit:10"></path><path d="M239.08,100.65c0,1.12-.63,2-1.41,2s-1.4-.91-1.4-2,.63-2,1.4-2S239.08,99.53,239.08,100.65Z" style="fill:#263238"></path><path d="M255.28,100c0,1.12-.63,2-1.4,2s-1.4-.91-1.4-2,.62-2,1.4-2S255.28,98.91,255.28,100Z" style="fill:#263238"></path><path d="M244.37,97.54a7.24,7.24,0,0,0-2.71-1.25c-1.53-.31-11.2-.78-13.06.31s-.85,5.92,0,6.7,8.65,2.18,11.53,1.4S244.54,99.87,244.37,97.54Z" style="fill:none;stroke:#263238;stroke-miterlimit:10"></path><path d="M248.39,97.54a7,7,0,0,1,2.67-1.25c1.5-.31,11-.78,12.85.31s.83,5.92,0,6.7-8.51,2.18-11.35,1.4S248.22,99.87,248.39,97.54Z" style="fill:none;stroke:#263238;stroke-miterlimit:10"></path><polygon points="242.06 96.29 250.7 96.29 248.38 97.54 244.37 97.54 242.06 96.29" style="fill:#263238;stroke:#263238;stroke-miterlimit:10"></polygon><path d="M232.69,94.73a15.47,15.47,0,0,1,8.88-.78" style="fill:none;stroke:#263238;stroke-miterlimit:10"></path><path d="M250.61,93.8s4.83-2,8.41.31" style="fill:none;stroke:#263238;stroke-miterlimit:10"></path><line x1="227.5" y1="98.16" x2="226.1" y2="98.63" style="fill:none;stroke:#263238;stroke-miterlimit:10"></line><path d="M233.89,85.85s-3.43,3.43-2.34,3.43,7.33-3.74,7.33-3.74-6.86,4.67-4.21,5.76,11.69.63,14.18-.93a59.09,59.09,0,0,0,5.45-4.05s-2,3.58-.31,2.8,4.68-4.52,4.83-5S246.36,80.08,233.89,85.85Z" style="fill:#263238;stroke:#263238;stroke-miterlimit:10"></path><path d="M230,87.1s.47,3.42-.62,5.45a30.19,30.19,0,0,1-3.74,4.83s-1.87-6.23-.47-8.41S229.53,86,230,87.1Z" style="fill:#263238;stroke:#263238;stroke-miterlimit:10"></path><path d="M263,87.41s-.78,3.74.16,5.61a13.62,13.62,0,0,0,2.64,3.43s.94-5.15.32-6.55S263.34,85.69,263,87.41Z" style="fill:#263238;stroke:#263238;stroke-miterlimit:10"></path><path d="M224.7,94.58a41.79,41.79,0,0,1,21.81-7.17c12.94-.47,19.79,5.3,19.79,5.3a9.23,9.23,0,0,0,.31-4.83c-.46-3.12-1.87-13.87-2.49-15.28s-11.06-6.7-20.72-6.54-20,6.39-20.42,8.88S224.7,94.58,224.7,94.58Z" style="fill:#00C8FF;stroke:#263238;stroke-miterlimit:10"></path><path d="M348.41,164.41A192.28,192.28,0,0,1,353,186.58c1.37,10.51.69,17.83-6.17,23.54s-16,34.28-19.43,40.45-5.94,8.46-5.94,8.46,6.63-37.25,6.63-55.31,4.57-31.77,7.31-36.57S347,156.41,348.41,164.41Z" style="fill:#263238;stroke:#263238;stroke-miterlimit:10"></path><path d="M261.1,164.78l4.76-14.54s8.73-1.06,9.52-1.32,12.43-11.64,14-12.17,3.17-.53,2.38,1.85-10,12.7-10,12.7,3.7,1.58,3.44,3.7l-.27,2.12a36.24,36.24,0,0,1,1.86,5c.53,2.12,1.58,5.29.26,7.41s-8.73,7.4-13,8.72-6.61,1.85-6.61,1.85l-14.28,12.7-6.61-17.19Z" style="fill:#fff;stroke:#263238;stroke-miterlimit:10"></path><line x1="275.38" y1="148.92" x2="267.98" y2="153.15" style="fill:#fff;stroke:#263238;stroke-miterlimit:10"></line><path d="M244.16,196.37s-7.6,34.17-8.14,48.81-4,34.9-4,34.9-6.82-10.5-7.91-29.48,6-49.35,6-49.35Z" style="fill:#263238;stroke:#263238;stroke-miterlimit:10"></path><polygon points="249.2 172.72 255.55 195.2 233.86 208.69 233.6 180.92 249.2 172.72" style="fill:#fff;stroke:#263238;stroke-miterlimit:10"></polygon><path d="M207.15,151.3c-3.7-2.65-9.79-1.85-10.31.11s-8.73,33.74-8.73,43,9,18,9.25,19.83,7.4,41.25,14.8,52.09,19.31,14.81,19.84,13.75-2.63-27.49-1.58-32.52,6.35-38.08,7.41-50a141.27,141.27,0,0,0,.53-19.84l-15.87,4.76s3.17-6.34,1.06-10.31-12.7-12.43-12.7-12.43" style="fill:#00C8FF;stroke:#263238;stroke-miterlimit:10"></path><path d="M194.82,198.48a40.85,40.85,0,0,0,.16,6" style="fill:none;stroke:#263238;stroke-miterlimit:10"></path><path d="M218.52,183s-19.3,4-22,8.2" style="fill:none;stroke:#263238;stroke-miterlimit:10"></path><path d="M195,184.88a21.37,21.37,0,0,1,7.94-2.11c3.7,0,11.64-.79,11.64-.79" style="fill:none;stroke:#263238;stroke-miterlimit:10"></path><path d="M305.14,244.65c0,11.19.63,12.6,2.77,13.49" style="fill:none;stroke:#263238;stroke-miterlimit:10"></path><path d="M299.45,140.19s6.51,47,6,80.59c-.12,7.39-.22,13.28-.27,18" style="fill:none;stroke:#263238;stroke-miterlimit:10"></path><path d="M313.27,74.92l6.38,79.57s1.63,2.37,8.55.37l-2.91-81.22S316.37,70.55,313.27,74.92Z" style="fill:#fff;stroke:#263238;stroke-miterlimit:10"></path><path d="M316.68,114.36a12.5,12.5,0,0,1,9.86-.59l.08,2.93s-6.48-.64-9.94,1Z" style="fill:#00C8FF;stroke:#263238;stroke-miterlimit:10"></path><path d="M314.36,107.73l.91,6.4s-3.88,5-3.2,5.72a8.4,8.4,0,0,0,3,1.14l1.64-6.63s2.93-3.2,2.71-4.57-3.43-4.57-4.12-4.57S314.36,107.73,314.36,107.73Z" style="fill:#00C8FF;stroke:#263238;stroke-miterlimit:10"></path><path d="M333.78,155s-5.25,13.26-4.8,23.31,3.89,19.89,5.95,21.49,9.14.45,10.51-4.12,5-18.74,4.34-23.31-2.28-10.28-2.74-12.34S337,152.3,333.78,155Z" style="fill:#fff;stroke:#263238;stroke-miterlimit:10"></path><path d="M342.82,146.27s-6.87-16.13-7.93-18.78-.79-4.76-2.12-4.76-15.6-1-16.66-.26-.26,5.82-.26,5.82a16.25,16.25,0,0,0-.8,4.23v1.85s.8,4.76,1.06,5.82.27,4,1.06,5.29c0,0,4,.53,5,.53s2.9,2.64,5,5.29a55.32,55.32,0,0,0,5,5.29v14.54c0,5.56,1.58,17.19,4.23,16.93s10.58-12.43,11.1-18.78S343.88,148.39,342.82,146.27Z" style="fill:#fff;stroke:#263238;stroke-miterlimit:10"></path><path d="M315.85,128.29l10.53-.93s1.82-1.46,3.28-.73" style="fill:none;stroke:#263238;stroke-miterlimit:10"></path><path d="M315.64,135.74l10-2s1.82-1.82,3.27-1.27" style="fill:none;stroke:#263238;stroke-miterlimit:10"></path><path d="M316.11,140.19l7.91-.63s2.73-2.19,4-1.82a9.8,9.8,0,0,1,2.19.91" style="fill:none;stroke:#263238;stroke-miterlimit:10"></path><path d="M332.25,156.59s2.51.81,4.15-.28" style="fill:#fff;stroke:#263238;stroke-miterlimit:10"></path></g></svg>
